<svg xmlns="http://www.w3.org/2000/svg" viewBox="0 0 800 800" fill="none"><defs></defs><rect x="0" y="0" width="800" height="800" rx="0" fill="#fdfbf7" /><path d="M 0 1 L 800 1" fill="none" stroke="#e7e5e4" stroke-width="2" opacity="0.35"/><path d="M 0 56 L 800 56" fill="none" stroke="#e7e5e4" stroke-width="2" opacity="0.35"/><path d="M 0 120 L 800 120" fill="none" stroke="#e7e5e4" stroke-width="2" opacity="0.35"/><path d="M 0 169 L 800 169" fill="none" stroke="#e7e5e4" stroke-width="2" opacity="0.35"/><path d="M 0 228 L 800 228" fill="none" stroke="#e7e5e4" stroke-width="2" opacity="0.35"/><path d="M 0 288 L 800 288" fill="none" stroke="#e7e5e4" stroke-width="2" opacity="0.35"/><path d="M 0 340 L 800 340" fill="none" stroke="#e7e5e4" stroke-width="2" opacity="0.35"/><path d="M 0 396 L 800 396" fill="none" stroke="#e7e5e4" stroke-width="2" opacity="0.35"/><path d="M 0 454 L 800 454" fill="none" stroke="#e7e5e4" stroke-width="2" opacity="0.35"/><path d="M 0 512 L 800 512" fill="none" stroke="#e7e5e4" stroke-width="2" opacity="0.35"/><path d="M 0 563 L 800 563" fill="none" stroke="#e7e5e4" stroke-width="2" opacity="0.35"/><path d="M 0 620 L 800 620" fill="none" stroke="#e7e5e4" stroke-width="2" opacity="0.35"/><path d="M 0 678 L 800 678" fill="none" stroke="#e7e5e4" stroke-width="2" opacity="0.35"/><path d="M 0 734 L 800 734" fill="none" stroke="#e7e5e4" stroke-width="2" opacity="0.35"/><path d="M 0 792 L 800 792" fill="none" stroke="#e7e5e4" stroke-width="2" opacity="0.35"/></svg>